<svg width="20" height="20" viewBox="0 0 20 20" fill="none" xmlns="http://www.w3.org/2000/svg">
<path d="M6.84021 1.25139C6.7885 1.05434 6.81952 0.8455 6.9265 0.670491C7.03348 0.495482 7.20772 0.36852 7.41118 0.317333C9.1076 -0.105778 10.8873 -0.105778 12.5837 0.317333C12.7716 0.363857 12.9355 0.475144 13.0445 0.630279C13.1535 0.785415 13.2002 0.973716 13.1758 1.15979C13.1513 1.34587 13.0575 1.51691 12.9118 1.64077C12.7662 1.76463 12.5787 1.83278 12.3848 1.83241C12.3176 1.83207 12.2508 1.82367 12.1858 1.8074C10.7504 1.44899 9.24445 1.44899 7.80906 1.8074C7.70769 1.83253 7.60219 1.83807 7.4986 1.82372C7.39502 1.80936 7.29537 1.77539 7.20538 1.72374C7.11538 1.6721 7.03681 1.60379 6.97415 1.52274C6.91148 1.44169 6.86597 1.34948 6.84021 1.25139ZM0.582421 8.27367C0.683136 8.30072 0.788376 8.30832 0.892128 8.29604C0.995881 8.28375 1.09611 8.25181 1.1871 8.20206C1.27809 8.1523 1.35805 8.0857 1.42241 8.00605C1.48678 7.9264 1.53428 7.83527 1.56222 7.73786C1.95919 6.35704 2.71217 5.09629 3.7506 4.07377C3.88907 3.92653 3.96316 3.73314 3.95733 3.53419C3.95149 3.33525 3.86619 3.14623 3.71932 3.00681C3.57245 2.8674 3.37544 2.78843 3.16965 2.78648C2.96386 2.78453 2.76529 2.85977 2.61563 2.99638C1.38878 4.20452 0.498936 5.69392 0.0293571 7.32518C0.00121546 7.42258 -0.00679997 7.52439 0.00576939 7.62478C0.0183388 7.72518 0.0512463 7.82219 0.102611 7.91028C0.153975 7.99837 0.222789 8.0758 0.305118 8.13815C0.387447 8.20051 0.481677 8.24656 0.582421 8.27367ZM18.4317 7.73882C18.4881 7.93553 18.6231 8.10248 18.8068 8.20297C18.9906 8.30345 19.2081 8.32923 19.4115 8.27463C19.6149 8.22004 19.7875 8.08954 19.8914 7.91184C19.9953 7.73414 20.022 7.52381 19.9655 7.32711C19.4962 5.69576 18.6063 4.20632 17.3793 2.9983C17.306 2.92624 17.2187 2.86883 17.1225 2.82937C17.0263 2.78991 16.923 2.76916 16.8185 2.76831C16.7139 2.76746 16.6103 2.78653 16.5134 2.82442C16.4165 2.86232 16.3283 2.9183 16.2537 2.98917C16.1792 3.06003 16.1199 3.1444 16.0791 3.23746C16.0382 3.33051 16.0168 3.43043 16.0159 3.5315C16.015 3.63257 16.0348 3.73282 16.0739 3.82652C16.1131 3.92023 16.171 4.00555 16.2443 4.07762C17.2821 5.09971 18.0347 6.35975 18.4317 7.73979V7.73882ZM19.4135 11.7367C19.3127 11.7097 19.2074 11.7021 19.1036 11.7145C18.9998 11.7268 18.8995 11.7588 18.8085 11.8087C18.7175 11.8585 18.6376 11.9253 18.5733 12.005C18.5089 12.0848 18.4615 12.176 18.4337 12.2735C18.0769 13.5154 17.4303 14.6616 16.5437 15.624C15.9635 14.8124 15.2269 14.1167 14.3742 13.575C14.3018 13.5285 14.2156 13.5063 14.1288 13.5117C14.042 13.5171 13.9595 13.5498 13.8938 13.6048C12.8126 14.5095 11.4307 15.0074 10.0009 15.0074C8.5712 15.0074 7.18928 14.5095 6.10809 13.6048C6.0423 13.5496 5.95955 13.5167 5.87258 13.5113C5.7856 13.5059 5.6992 13.5283 5.62665 13.575C4.76848 14.1093 4.02535 14.7993 3.43826 15.6067C2.56008 14.647 1.91952 13.5064 1.56521 12.2716C1.50875 12.0749 1.3738 11.9079 1.19005 11.8074C1.00631 11.7069 0.788808 11.6812 0.585406 11.7358C0.382003 11.7903 0.209359 11.9208 0.105453 12.0985C0.00154671 12.2762 -0.0251103 12.4866 0.0313464 12.6833C0.639566 14.7881 1.9433 16.6426 3.74352 17.9637C5.54374 19.2849 7.74154 20 10.0014 20C12.2613 20 14.4591 19.2849 16.2593 17.9637C18.0596 16.6426 19.3633 14.7881 19.9715 12.6833C19.9993 12.5857 20.0068 12.4838 19.9938 12.3833C19.9808 12.2829 19.9474 12.186 19.8955 12.098C19.8437 12.0101 19.7744 11.9329 19.6917 11.8709C19.609 11.8089 19.5144 11.7633 19.4135 11.7367ZM9.99745 13.4682C10.8631 13.4682 11.7093 13.22 12.4291 12.7549C13.1488 12.2898 13.7098 11.6288 14.0411 10.8554C14.3723 10.082 14.459 9.23093 14.2901 8.40989C14.1212 7.58884 13.7044 6.83466 13.0923 6.24272C12.4802 5.65078 11.7003 5.24767 10.8513 5.08435C10.0023 4.92103 9.12228 5.00485 8.32253 5.32521C7.52278 5.64557 6.83922 6.18807 6.3583 6.88412C5.87737 7.58017 5.62068 8.3985 5.62068 9.23563C5.622 10.3578 6.08354 11.4336 6.90406 12.2271C7.72458 13.0206 8.83706 13.467 9.99745 13.4682Z" fill="black"/>
</svg>
